<svg id="eQmqMg2Vaek1" xmlns="http://www.w3.org/2000/svg" xmlns:xlink="http://www.w3.org/1999/xlink" viewBox="0 130 600 200" shape-rendering="geometricPrecision" text-rendering="geometricPrecision"><defs><linearGradient id="eQmqMg2Vaek2-fill" x1="91.2698" y1="193.7628" x2="217.3512" y2="307.7878" spreadMethod="pad" gradientUnits="userSpaceOnUse" gradientTransform="translate(0 0)"><stop id="eQmqMg2Vaek2-fill-0" offset="0%" stop-color="#e63a8d"/><stop id="eQmqMg2Vaek2-fill-1" offset="100%" stop-color="#ea5619"/></linearGradient><linearGradient id="eQmqMg2Vaek3-fill" x1="106.6614" y1="188.2882" x2="166.6952" y2="338.4673" spreadMethod="pad" gradientUnits="userSpaceOnUse" gradientTransform="translate(0 0)"><stop id="eQmqMg2Vaek3-fill-0" offset="0%" stop-color="#e63a8d"/><stop id="eQmqMg2Vaek3-fill-1" offset="100%" stop-color="#ea5619"/></linearGradient><linearGradient id="eQmqMg2Vaek4-fill" x1="125.9585" y1="251.428" x2="139.9537" y2="267.5265" spreadMethod="pad" gradientUnits="userSpaceOnUse" gradientTransform="translate(0 0)"><stop id="eQmqMg2Vaek4-fill-0" offset="0%" stop-color="#e63a8d"/><stop id="eQmqMg2Vaek4-fill-1" offset="100%" stop-color="#ea5619"/></linearGradient></defs><path d="M141.8,188.7h29.6c9.6,0,17.4,8.4,17.4,18.8v59c0,10.4-7.8,18.8-17.4,18.8h-2.4c-.3,2.6-2.5,4.6-5.1,4.6h-8c-2.6,0-4.8-2-5.1-4.6h-38.5c-.3,2.6-2.5,4.6-5.1,4.6h-8c-2.6,0-4.8-2-5.1-4.6h-2.5c-9.6,0-17.4-8.4-17.4-18.8v-59c0-10.4,7.8-18.8,17.4-18.8h29.6L99.6,168c-1.1-1-1.6-2.5-1.2-4c.3-1.4,1.4-2.6,2.9-3c1.4-.4,3,0,4,1l26.3,25.1L157.9,162c1.6-1.5,4.2-1.4,5.7.2s1.5,4.2-.1,5.7l-21.7,20.8Zm29.6,88.5c5,0,9.2-4.8,9.2-10.6v-59c0-5.9-4.1-10.6-9.2-10.6h-79.7c-5,0-9.2,4.8-9.2,10.6v59c0,5.9,4.1,10.6,9.2,10.6h79.7Z" clip-rule="evenodd" fill="url(#eQmqMg2Vaek2-fill)" fill-rule="evenodd"/><path d="M165.3,252.4v-.2c0-.1,0-.1,0-.2s0-.1,0-.2s0-.1,0-.2s0-.1,0-.2s0-.1,0-.2s0-.1,0-.2s0-.1,0-.2s0-.1,0-.2s0-.1,0-.2v-.2-.2v0-.2c0-.1,0-.2,0-.2v-.2c0-.1,0-.2,0-.2v-.2c0-.1,0-.2,0-.2c0-.1,0-.1,0-.2-.2-.1-.4-.1-.5-.2c0-.1,0-.1,0-.2s0-.2,0-.3s0-.1,0-.2l-.1-.3c0-.1,0-.1,0-.2s0-.2-.1-.3c0-.1,0-.1,0-.2s0-.2-.1-.3l-.1-.2c0-.1,0-.2-.1-.3c0-.1,0-.1-.1-.2c0-.1,0-.2-.1-.3s0-.2-.1-.2c0-.1-.1-.2-.1-.3s0-.2-.1-.2c-.1-.1,0-.2-.1-.3c0-.1-.1-.2-.1-.3l-.1-.3-.1-.3-.1-.3-.1-.3-.1-.3c0-.1-.1-.2-.1-.3l-.1-.3c0-.1-.1-.2-.1-.3l-.1-.3c0-.1-.1-.2-.1-.3l-.1-.2-.1-.4-.1-.2-.1-.4c0-.1,0-.1-.1-.2l-.2-.6c-4.1-11.4-11.7-23.7-15.5-25.1-.2-.1-.3-.1-.5-.1s-.4,0-.6.1c-3.4,1.2-9.7,11.1-14,21.3-4.7-11.2-11.9-22.1-14.9-21.4-3.5.5-11.3,13-15.7,24.6-.1.2-.1.4-.2.6l-.2.6c0,.1-.1.1-.1.2s-.1.3-.1.4l-.1.2c0,.1-.1.2-.1.3l-.1.2-.1.3c0,.1-.1.2-.1.2l-.1.3-.1.2c0,.1-.1.2-.1.3s0,.2-.1.2c0,.1-.1.2-.1.3s-.1.2-.1.2l-.1.3c0,.1,0,.1-.1.2c0,.1-.1.2-.1.3s0,.1-.1.2l-.1.3-.1.2-.1.3-.1.2c0,.1-.1.2-.1.3l-.1.2c0,.1,0,.2-.1.3c0,.1,0,.1,0,.2s0,.2-.1.3s0,.1,0,.2s0,.2-.1.3s0,.1,0,.2s0,.2-.1.3v.2c0,.1,0,.2-.1.3c0,.1,0,.1,0,.2l-.1.3v.1c0,.1,0,.2,0,.3c0,0,0,.1,0,.1c0,.1,0,.2,0,.3c0,0,0,.1,0,.1c0,.1,0,.2,0,.3s0,.1,0,.1s0,.2,0,.3s0,.1,0,.1s0,.2,0,.3c0,0,0,.1,0,.1v.3c0,0,0,.1,0,.1s0,.2,0,.3c0,0,0,0,0,.1s0,.2,0,.3v0c0,.1,0,.2,0,.4v0c0,.5,0,.9,0,1.3v0c0,.1,0,.2,0,.3v0c.2,3,1.4,4.8,3.1,5.4v0c3.6,1.3,8.3-2.6,12.9-15.2c1.2-3.5,2.3-7,3.1-10.6.7,3.6,1.6,7.1,2.7,10.6c3.6,9.9,7.3,14.4,10.5,15.3l.3.1v0c.2,0,.5.1.7.1h.5.1v0c.1,0,.1,0,.2,0h.2.1c3.2-.8,6.9-5.3,10.5-15.3c1.2-3.4,2.2-6.8,3-10.3.8,3.5,1.8,6.9,3,10.3c4.6,12.5,9.3,16.5,12.9,15.2v0c1.8-.6,2.9-2.4,3.1-5.4v0c0-.1,0-.2,0-.3v0c0-.3,0-.6,0-1v-.2c.9.4.9.3,1,.2Z" fill="url(#eQmqMg2Vaek3-fill)"/><path d="M133,259.5v0v0v0v0v0v0Z" fill="url(#eQmqMg2Vaek4-fill)"/><path d="M231.2,280.2c-9.9,0-18.9-2.2-25.6-5.8l1.8-12.5c6.1,4,14.8,7.6,24.2,7.6c9.6,0,16.7-4.8,16.7-13.4c0-8.1-3.8-11.4-17.8-17.4-17.4-7.6-23.9-13.1-23.9-25.9c0-14.4,11.3-23.5,28-23.5c8.9,0,15.6,2.1,21,5l-2,12.3c-5.7-4.2-12.5-6.5-19.5-6.6-10.5,0-15.3,5.4-15.3,11.9c0,6.7,3.5,9.9,17.7,16.2c17.8,7.9,24,13.7,24,27.1-.1,15.3-12,25-29.3,25Z" fill="currentcolor"/><path d="M290.9,280.3c-11.7,0-19.4-4.2-19.4-17.3v-39.1h-10.3v-10.2h10.3v-21.8l11.8-1.8v23.7h15l1.6,10.2h-16.6v37c0,5.4,2.5,8.7,9.6,8.7c2,.1,4-.1,6-.5l1.6,10.3c-3.2.6-6.4.9-9.6.8v0Z" fill="currentcolor"/><path d="M352.6,279.2l-1.6-9.4c-6.6,5.8-14.7,10.8-24.2,10.8-13.1,0-19.9-7.4-19.9-19.3v-47.6h12.1v44.6c0,6.9,3.2,11.4,10.8,11.4c6.9,0,13.7-4.3,20.1-10.7v-45.4h12.1v65.5h-9.4v.1Z" fill="currentcolor"/><path d="M418.8,269.8l1.6,9.4h9.6v-99.1l-12,1.8v33.9c-5.5-2-11.4-3-17.3-2.9-16.6,0-30.9,11.5-30.9,35.4c0,22,12.3,32.2,27,32.2c9.9.1,16.9-4.8,22-10.7ZM401,223.1c7.2,0,11.5,1.1,16.9,3.7v31.6c-5.6,7-11.6,11.5-19.5,11.5-9.4,0-16.4-7.6-16.4-22.1c0-16.3,8.1-24.7,19-24.7Z" clip-rule="evenodd" fill="currentcolor" fill-rule="evenodd"/><path d="M443.1,198.2c1.5,1.4,3.5,2.2,5.5,2.2s4-.7,5.5-2.2c1.5-1.4,2.3-3.4,2.3-5.4c0-4.3-3.5-7.7-7.7-7.7-4.3,0-7.8,3.4-7.9,7.7-.1,2,.8,4,2.3,5.4Zm-.6,15.6v65.5h12.1v-65.5h-12.1Z" clip-rule="evenodd" fill="currentcolor" fill-rule="evenodd"/><path d="M463.2,246.6c0,21.5,13.1,34,31.1,34s31.5-12.4,31.5-34-13.4-34.2-31.5-34.2c-17.9,0-31.1,12.8-31.1,34.2Zm12.3,0c0-14,6.5-24.2,18.9-24.2c12.3,0,19.3,10.6,19.3,24.2c0,13.9-6.7,23.9-19.3,23.9-12.2,0-18.9-10.4-18.9-23.9Z" clip-rule="evenodd" fill="currentcolor" fill-rule="evenodd"/></svg>
